<?xml version="1.0" standalone="no"?><!DOCTYPE svg PUBLIC "-//W3C//DTD SVG 1.1//EN" "http://www.w3.org/Graphics/SVG/1.1/DTD/svg11.dtd"><svg t="1629769188270" class="icon" viewBox="0 0 1024 1024" version="1.1" xmlns="http://www.w3.org/2000/svg" p-id="6218" xmlns:xlink="http://www.w3.org/1999/xlink" width="200" height="200"><defs><style type="text/css"></style></defs><path d="M848.9 824.3V250.8h-600v565.6l51.5 118.3H897l-48.1-110.4zM414.5 333.7c-13.1 0-23.7-10.6-23.7-23.7s10.6-23.7 23.7-23.7 23.7 10.6 23.7 23.7-10.6 23.7-23.7 23.7zM664 514.6c-2.9 10.1-7.2 19.6-12.6 28.4l-98 157.3-98-157.2c-10.8-17.5-17.1-38.2-17.1-60.4 0-63.6 51.5-115.1 115.1-115.1 63.6 0 115.1 51.6 115.1 115.1 0 11-1.5 21.7-4.5 31.9z m28.4-180.9c-13.1 0-23.7-10.6-23.7-23.7s10.6-23.7 23.7-23.7 23.7 10.6 23.7 23.7c-0.1 13.1-10.7 23.7-23.7 23.7z" fill="#7ECBE1" p-id="6219"></path><path d="M553.4 711.1L450.5 546c-11.7-19-17.9-41-17.9-63.4 0-66.6 54.2-120.8 120.8-120.8S674.2 416 674.2 482.6c0 22.4-6.2 44.3-17.9 63.3L553.4 711.1z m0-337.8c-60.3 0-109.4 49.1-109.4 109.3 0 20.3 5.6 40.1 16.2 57.3l93.1 149.4L646.6 540c10.6-17.2 16.2-37 16.2-57.3 0-60.3-49.1-109.4-109.4-109.4z" fill="#495460" p-id="6220"></path><path d="M471.7 532.9c-9.3-15-14.2-32.4-14.2-50.2 0-52.9 43-95.9 96-95.9 52.9 0 96 43 96 95.9 0 17.8-4.9 35.2-14.2 50.3l-81.9 131-81.7-131.1z" fill="#FDDA43" p-id="6221"></path><path d="M611.1 471.8c0-15.9-12.9-28.9-28.9-28.9-15.9 0-28.8 12.9-28.8 28.9 0-15.9-12.9-28.9-28.9-28.9-15.9 0-28.8 12.9-28.8 28.9 0 10.8 7.1 19 13.8 26.8 5.6 6.5 11.1 13 16.7 19.5 9 10.5 18.2 21.2 27.2 31.7 0 0-0.1-0.1 0 0 0 0 43.4-49.5 48-55.3 5.3-6.6 9.7-14.1 9.7-22.7z" fill="#F09069" p-id="6222"></path><path d="M934.9 959.5H284.1l-60-138V225.9h649.8v593.3l61 140.3zM291.6 948h625.8l-55-126.5V237.4H235.5v581.8L291.6 948z" fill="#495460" p-id="6223"></path><path d="M866.9 826.1h-11.5v-11.5h11.5v11.5z m-23 0h-11.5v-11.5h11.5v11.5z m-23 0h-11.5v-11.5h11.5v11.5z m-23 0h-11.5v-11.5h11.5v11.5z m-22.9 0h-11.5v-11.5H775v11.5z m-23 0h-11.5v-11.5H752v11.5z m-23 0h-11.5v-11.5H729v11.5z m-23 0h-11.5v-11.5H706v11.5z m-22.9 0h-11.5v-11.5h11.5v11.5z m-23 0h-11.5v-11.5h11.5v11.5z m-23 0h-11.5v-11.5h11.5v11.5z m-23 0h-11.5v-11.5h11.5v11.5z m-22.9 0h-11.5v-11.5h11.5v11.5z m-23 0h-11.5v-11.5h11.5v11.5z m-23 0h-11.5v-11.5h11.5v11.5z m-22.9 0h-11.5v-11.5h11.5v11.5z m-23 0h-11.5v-11.5h11.5v11.5z m-23 0h-11.5v-11.5h11.5v11.5z m-23 0h-11.5v-11.5h11.5v11.5z m-22.9 0h-11.5v-11.5h11.5v11.5z m-23 0h-11.5v-11.5h11.5v11.5z m-23 0h-11.5v-11.5h11.5v11.5z m-23 0H350v-11.5h11.5v11.5z m-22.9 0H327v-11.5h11.5v11.5z m-23 0H304v-11.5h11.5v11.5zM698.1 310.1h-11.5V142.9c0-36.9-27.7-67-61.8-67H482c-34.1 0-61.8 30-61.8 67V310h-11.5V142.9c0-43.2 32.9-78.4 73.3-78.4h142.8c40.4 0 73.3 35.2 73.3 78.4v167.2z" fill="#495460" p-id="6224"></path><path d="M603.8 236.5h-11.5V143c0-36.9-27.7-67-61.8-67H387.7c-34.1 0-61.8 30-61.8 67v88.7h-11.5V143c0-43.2 32.9-78.4 73.3-78.4h142.8c40.4 0 73.3 35.2 73.3 78.4v93.5zM692.4 339.5c-16.2 0-29.4-13.2-29.4-29.4s13.2-29.4 29.4-29.4 29.4 13.2 29.4 29.4-13.2 29.4-29.4 29.4z m0-47.4c-9.9 0-17.9 8-17.9 17.9s8 17.9 17.9 17.9c9.9 0 17.9-8 17.9-17.9s-8.1-17.9-17.9-17.9zM414.5 339.5c-16.2 0-29.4-13.2-29.4-29.4s13.2-29.4 29.4-29.4 29.4 13.2 29.4 29.4-13.2 29.4-29.4 29.4z m0-47.4c-9.9 0-17.9 8-17.9 17.9s8 17.9 17.9 17.9c9.9 0 17.9-8 17.9-17.9s-8-17.9-17.9-17.9zM296.6 959.5H89.1l51.6-144.3V225.9h94.9v593.3l61 140.3zM105.4 948h173.7l-55-126.5V237.4h-71.9v579.8L105.4 948z" fill="#495460" p-id="6225"></path><path d="M124.4 934.6l41.1-115.1V250.8h45.1v573.5l48 110.3z" fill="#F09069" p-id="6226"></path><path d="M203 826.1h-11.5v-11.5H203v11.5z m-23 0h-11.5v-11.5H180v11.5zM191.7 795.1h-11.5v-11.5h11.5v11.5z m0-22.9h-11.5v-11.5h11.5v11.5z m0-23h-11.5v-11.5h11.5v11.5z m0-23h-11.5v-11.5h11.5v11.5z m0-23h-11.5v-11.5h11.5v11.5z m0-22.9h-11.5v-11.5h11.5v11.5z m0-23h-11.5v-11.5h11.5v11.5z m0-23h-11.5v-11.5h11.5v11.5z m0-23h-11.5v-11.5h11.5v11.5z m0-22.9h-11.5v-11.5h11.5v11.5z m0-23h-11.5v-11.5h11.5v11.5z m0-23h-11.5v-11.5h11.5v11.5z m0-23h-11.5v-11.5h11.5v11.5z m0-22.9h-11.5V485h11.5v11.5z m0-23h-11.5V462h11.5v11.5z m0-23h-11.5V439h11.5v11.5z m0-22.9h-11.5v-11.5h11.5v11.5z m0-23h-11.5v-11.5h11.5v11.5z m0-23h-11.5v-11.5h11.5v11.5z m0-23h-11.5v-11.5h11.5v11.5z m0-22.9h-11.5v-11.5h11.5v11.5z m0-23h-11.5v-11.5h11.5v11.5z m0-23h-11.5v-11.5h11.5v11.5z m0-23h-11.5v-11.5h11.5v11.5zM390 700.7h335.6v11.5H390zM191.7 895.9h-11.5v-11.5h11.5v11.5z m0-23h-11.5v-11.5h11.5v11.5z m0-23h-11.5v-11.5h11.5v11.5zM127.7 936.2l-7-9.1 9.1-7 7 9.1-9.1 7z m18.2-14l-7-9.1 9.1-7 7 9.1-9.1 7z m18.2-14.1l-7-9.1 9.1-7 7 9.1-9.1 7zM243.9 936.2l-9.1-7 7-9.1 9.1 7-7 9.1z m-18.2-14l-9.1-7 7-9.1 9.1 7-7 9.1z m-18.1-14.1l-9.1-7 7-9.1 9.1 7-7 9.1z" fill="#495460" p-id="6227"></path><path d="M553.4 558.5l-6.7-7.8v-0.1l-30.2-35.2c-3.8-4.4-7.5-8.8-11.3-13.1-7.1-8.3-15.2-17.6-15.2-30.5 0-19.1 15.5-34.6 34.6-34.6 12 0 22.7 6.2 28.9 15.5 6.2-9.3 16.8-15.5 28.8-15.5 19.1 0 34.6 15.5 34.6 34.6 0 11.3-6.2 20.4-10.9 26.2-4.7 5.9-46.4 53.5-48.2 55.5l-4.4 5z m-4.3-4.9l4.3-3.8-4.3 3.8z m-24.5-104.9c-12.7 0-23.1 10.4-23.1 23.1 0 8.6 6 15.6 12.4 23 3.8 4.4 7.5 8.8 11.3 13.2l28.3 33c11.1-12.7 39.9-45.6 43.5-50.1 5.7-7.2 8.4-13.2 8.4-19.1 0-12.8-10.4-23.1-23.1-23.1-12.7 0-23.1 10.4-23.1 23.1h-11.5c0-12.8-10.4-23.1-23.1-23.1z" fill="#495460" p-id="6228"></path></svg>